{"glyphs":{"0":{"ha":1040,"x_min":0,"x_max":0,"o":"m 51 598 l 223 562 b 326 735 236 630 273 691 b 519 796 374 773 438 796 b 713 735 601 796 666 773 b 816 561 767 691 803 629 l 988 597 b 822 872 965 703 910 802 b 519 972 745 934 644 972 b 217 872 395 972 294 934 b 51 598 129 802 74 704 z m 816 405 b 712 233 802 338 766 277 b 519 172 665 195 601 172 b 326 233 438 172 374 195 b 223 405 273 277 237 338 l 52 368 b 218 96 76 262 131 165 b 520 -3 295 35 396 -3 b 821 96 643 -3 744 35 b 987 368 908 165 963 263 z "},"1":{"ha":583,"x_min":0,"x_max":0,"o":"m 514 -3 l 514 192 l 338 192 l 338 -3 z m 514 289 l 514 972 l 46 972 l 46 689 l 221 689 l 221 796 l 338 796 l 338 289 z "},"2":{"ha":892,"x_min":0,"x_max":0,"o":"m 237 484 b 364 777 237 641 293 738 b 442 798 388 791 414 798 b 519 777 469 798 495 791 b 644 536 582 742 633 662 l 61 235 l 61 -3 l 539 -3 l 539 172 l 321 172 l 822 431 l 822 484 b 604 930 822 713 726 862 b 442 973 554 958 498 973 b 279 930 385 973 329 958 b 61 484 157 862 61 713 z m 651 172 l 651 -3 l 832 -3 l 832 172 z "},"3":{"ha":975,"x_min":0,"x_max":0,"o":"m 230 684 b 286 750 230 706 251 730 b 483 796 335 779 405 796 b 681 750 562 796 632 779 b 737 684 715 730 737 706 b 681 618 737 662 715 639 b 483 572 632 590 562 572 l 483 396 b 769 467 593 396 694 424 b 913 684 858 519 913 596 b 769 901 913 773 858 849 b 483 972 694 945 593 972 b 198 901 374 972 272 945 b 54 684 109 849 54 773 z m 54 284 b 198 67 54 196 109 119 b 483 -3 272 24 374 -3 b 769 67 593 -3 694 24 b 912 284 858 119 912 196 b 890 381 913 318 905 351 b 829 460 875 411 854 438 l 713 328 b 733 305 721 322 728 314 b 737 284 736 298 737 291 b 680 218 737 262 715 239 b 483 172 632 190 562 172 b 286 218 404 172 335 190 b 230 284 251 239 230 262 z "},"4":{"ha":996,"x_min":0,"x_max":0,"o":"m 749 972 l 749 -3 l 925 -3 l 925 972 z m 67 972 l 67 202 l 642 202 l 642 377 l 242 377 l 242 972 z "},"5":{"ha":892,"x_min":0,"x_max":0,"o":"m 71 363 b 302 28 101 191 192 78 b 473 -2 355 3 414 -8 b 639 61 533 4 590 26 b 822 485 744 137 822 279 l 822 548 l 237 742 l 237 797 l 539 797 l 539 973 l 61 973 l 61 616 l 643 423 b 536 203 632 315 590 242 b 457 172 513 186 486 175 b 375 187 429 170 400 175 b 244 393 314 215 263 283 z m 651 973 l 651 797 l 832 797 l 832 973 z "},"6":{"ha":953,"x_min":0,"x_max":0,"o":"m 439 453 b 476 455 451 455 464 455 b 652 408 538 456 599 439 b 729 308 694 382 724 348 b 729 295 729 304 729 299 b 729 291 729 291 730 293 b 669 213 728 260 704 233 b 492 172 622 186 558 172 b 469 172 481 172 473 172 b 252 344 354 178 283 251 b 232 484 237 389 230 436 b 260 624 234 532 243 579 b 476 793 297 720 370 793 b 531 786 494 793 513 791 b 584 763 550 781 568 773 l 673 914 b 578 955 643 932 611 946 b 476 969 545 964 510 969 b 96 687 286 969 157 846 b 57 488 72 623 59 556 b 86 288 55 421 65 353 b 461 -2 138 131 261 8 b 492 -3 474 -3 484 -3 b 755 61 586 -3 682 19 b 904 283 841 110 899 184 b 905 295 905 290 905 294 b 903 328 905 306 904 317 b 744 557 891 427 829 505 b 476 631 663 605 570 631 b 418 627 457 631 437 630 z "},"7":{"ha":854,"x_min":0,"x_max":0,"o":"m 40 796 l 235 796 l 235 972 l 40 972 z m 333 972 l 333 796 l 624 796 l 91 -3 l 302 -3 l 811 760 l 811 972 z "},"8":{"ha":982,"x_min":0,"x_max":0,"o":"m 688 751 b 744 689 723 731 744 709 b 688 627 744 669 723 647 b 490 582 639 599 569 582 b 292 627 411 582 342 599 b 237 689 258 647 237 669 b 292 751 237 709 258 731 b 490 796 342 779 411 796 b 688 751 569 796 639 779 z m 726 328 b 741 306 732 322 737 314 b 744 289 743 300 744 295 b 687 219 744 265 722 241 b 490 172 638 190 569 172 b 294 219 412 172 342 190 b 237 289 258 241 237 265 b 294 359 237 313 258 338 b 490 406 343 388 412 406 b 775 475 600 406 701 432 b 919 689 864 526 919 601 b 775 903 919 777 864 852 b 490 972 701 946 600 972 b 205 903 381 972 280 946 b 61 689 116 852 61 777 b 178 492 61 611 105 542 b 61 289 105 440 61 370 b 204 69 61 200 116 122 b 490 -3 279 24 380 -3 b 777 69 600 -3 702 24 b 919 289 865 122 919 200 b 902 374 919 318 913 347 b 855 446 890 400 875 424 z "},"9":{"ha":953,"x_min":0,"x_max":0,"o":"m 514 512 b 476 510 501 511 489 510 b 300 558 414 510 353 526 b 224 658 258 583 228 618 b 223 670 223 662 223 666 b 223 675 223 675 223 673 b 283 752 224 706 248 732 b 461 793 330 779 394 793 b 483 793 471 793 479 793 b 701 621 598 787 669 714 b 720 482 715 576 722 529 b 692 341 719 434 709 386 b 476 172 655 246 582 172 b 421 179 458 172 439 174 b 368 202 402 185 385 192 l 279 51 b 374 11 309 34 341 20 b 476 -3 408 1 442 -3 b 856 279 666 -3 795 119 b 895 477 880 342 893 409 b 866 677 897 545 888 613 b 491 968 814 834 692 958 b 460 969 478 969 468 969 b 197 905 366 969 270 947 b 48 683 111 856 53 781 b 47 670 47 676 47 671 b 49 637 47 659 48 648 b 208 408 61 539 123 461 b 476 335 289 360 382 335 b 534 338 495 335 515 336 z "},"\u000b":{"ha":732,"x_min":0,"x_max":0,"o":"m 69 972 l 69 0 l 663 0 l 663 972 z m 108 944 l 624 944 l 365 515 z m 349 486 l 99 68 l 99 903 z m 367 457 l 624 29 l 110 29 z m 383 486 l 635 906 l 635 65 z "},"\f":{"ha":732,"x_min":0,"x_max":0,"o":"m 69 972 l 69 0 l 663 0 l 663 972 z m 108 944 l 624 944 l 365 515 z m 349 486 l 99 68 l 99 903 z m 367 457 l 624 29 l 110 29 z m 383 486 l 635 906 l 635 65 z "},"Æ":{"ha":732,"x_min":0,"x_max":0,"o":"m 69 972 l 69 0 l 663 0 l 663 972 z m 108 944 l 624 944 l 365 515 z m 349 486 l 99 68 l 99 903 z m 367 457 l 624 29 l 110 29 z m 383 486 l 635 906 l 635 65 z "},"Ð":{"ha":732,"x_min":0,"x_max":0,"o":"m 69 972 l 69 0 l 663 0 l 663 972 z m 108 944 l 624 944 l 365 515 z m 349 486 l 99 68 l 99 903 z m 367 457 l 624 29 l 110 29 z m 383 486 l 635 906 l 635 65 z "},"×":{"ha":732,"x_min":0,"x_max":0,"o":"m 69 972 l 69 0 l 663 0 l 663 972 z m 108 944 l 624 944 l 365 515 z m 349 486 l 99 68 l 99 903 z m 367 457 l 624 29 l 110 29 z m 383 486 l 635 906 l 635 65 z "},"Þ":{"ha":732,"x_min":0,"x_max":0,"o":"m 69 972 l 69 0 l 663 0 l 663 972 z m 108 944 l 624 944 l 365 515 z m 349 486 l 99 68 l 99 903 z m 367 457 l 624 29 l 110 29 z m 383 486 l 635 906 l 635 65 z "},"ß":{"ha":732,"x_min":0,"x_max":0,"o":"m 69 972 l 69 0 l 663 0 l 663 972 z m 108 944 l 624 944 l 365 515 z m 349 486 l 99 68 l 99 903 z m 367 457 l 624 29 l 110 29 z m 383 486 l 635 906 l 635 65 z "},"æ":{"ha":732,"x_min":0,"x_max":0,"o":"m 69 972 l 69 0 l 663 0 l 663 972 z m 108 944 l 624 944 l 365 515 z m 349 486 l 99 68 l 99 903 z m 367 457 l 624 29 l 110 29 z m 383 486 l 635 906 l 635 65 z "},"ð":{"ha":732,"x_min":0,"x_max":0,"o":"m 69 972 l 69 0 l 663 0 l 663 972 z m 108 944 l 624 944 l 365 515 z m 349 486 l 99 68 l 99 903 z m 367 457 l 624 29 l 110 29 z m 383 486 l 635 906 l 635 65 z "},"÷":{"ha":732,"x_min":0,"x_max":0,"o":"m 69 972 l 69 0 l 663 0 l 663 972 z m 108 944 l 624 944 l 365 515 z m 349 486 l 99 68 l 99 903 z m 367 457 l 624 29 l 110 29 z m 383 486 l 635 906 l 635 65 z "},"þ":{"ha":732,"x_min":0,"x_max":0,"o":"m 69 972 l 69 0 l 663 0 l 663 972 z m 108 944 l 624 944 l 365 515 z m 349 486 l 99 68 l 99 903 z m 367 457 l 624 29 l 110 29 z m 383 486 l 635 906 l 635 65 z "},"‚":{"ha":732,"x_min":0,"x_max":0,"o":"m 69 972 l 69 0 l 663 0 l 663 972 z m 108 944 l 624 944 l 365 515 z m 349 486 l 99 68 l 99 903 z m 367 457 l 624 29 l 110 29 z m 383 486 l 635 906 l 635 65 z "},"‛":{"ha":732,"x_min":0,"x_max":0,"o":"m 69 972 l 69 0 l 663 0 l 663 972 z m 108 944 l 624 944 l 365 515 z m 349 486 l 99 68 l 99 903 z m 367 457 l 624 29 l 110 29 z m 383 486 l 635 906 l 635 65 z "},"\u0000":{"ha":0,"x_min":0,"x_max":0,"o":""},"\n":{"ha":0,"x_min":0,"x_max":0,"o":""},"\r":{"ha":0,"x_min":0,"x_max":0,"o":""}," ":{"ha":532,"x_min":0,"x_max":0,"o":""},"!":{"ha":329,"x_min":0,"x_max":0,"o":"m 252 225 l 252 1098 l 76 1098 l 76 225 z m 164 -4 b 262 94 218 -4 262 40 b 164 191 262 147 218 191 b 67 94 110 191 67 147 b 164 -4 67 40 110 -4 z "},"\"":{"ha":513,"x_min":0,"x_max":0,"o":"m 199 1007 b 238 1032 210 1019 223 1027 b 42 989 217 1136 58 1158 b 241 927 22 781 241 796 b 199 1007 241 959 225 989 z m 428 1007 b 467 1032 439 1019 452 1027 b 271 989 446 1136 287 1158 b 470 927 251 781 470 796 b 428 1007 471 959 455 989 z "},"“":{"ha":513,"x_min":0,"x_max":0,"o":"m 199 1007 b 238 1032 210 1019 223 1027 b 42 989 217 1136 58 1158 b 241 927 22 781 241 796 b 199 1007 241 959 225 989 z m 428 1007 b 467 1032 439 1019 452 1027 b 271 989 446 1136 287 1158 b 470 927 251 781 470 796 b 428 1007 471 959 455 989 z "},"”":{"ha":513,"x_min":0,"x_max":0,"o":"m 199 1007 b 238 1032 210 1019 223 1027 b 42 989 217 1136 58 1158 b 241 927 22 781 241 796 b 199 1007 241 959 225 989 z m 428 1007 b 467 1032 439 1019 452 1027 b 271 989 446 1136 287 1158 b 470 927 251 781 470 796 b 428 1007 471 959 455 989 z "},"#":{"ha":1018,"x_min":0,"x_max":0,"o":"m 963 581 l 963 756 l 875 756 l 924 1003 l 752 1038 l 696 756 l 421 756 l 471 1003 l 299 1038 l 242 756 l 135 756 l 135 581 l 207 581 l 169 390 l 56 390 l 56 215 l 134 215 l 85 -34 l 257 -68 l 313 215 l 588 215 l 538 -34 l 710 -68 l 767 215 l 883 215 l 883 390 l 802 390 l 839 581 z m 623 390 l 348 390 l 386 581 l 660 581 z "},"$":{"ha":1038,"x_min":0,"x_max":0,"o":"m 338 396 l 428 396 l 428 572 l 338 572 b 265 602 311 572 285 582 b 235 674 246 621 235 647 b 265 746 235 701 246 727 b 338 776 285 765 310 776 l 699 776 b 771 746 726 776 752 765 b 802 674 791 727 802 701 l 977 674 b 896 870 977 748 948 818 b 699 952 844 922 773 952 l 606 952 l 606 1019 l 431 1019 l 431 952 l 338 952 b 141 870 264 952 193 922 b 60 674 89 818 60 748 b 141 478 60 600 89 530 b 338 396 193 425 264 396 z m 699 572 l 609 572 l 609 396 l 699 396 b 772 366 726 396 752 385 b 802 294 791 347 802 321 b 772 221 802 267 791 241 b 699 191 752 202 726 191 l 338 191 b 265 221 311 191 285 202 b 235 294 246 241 235 267 l 60 294 b 141 97 60 220 89 149 b 338 16 193 45 264 16 l 431 16 l 431 -52 l 606 -52 l 606 16 l 699 16 b 896 97 773 16 844 45 b 977 294 948 149 977 220 b 896 490 977 367 948 438 b 699 572 844 542 773 572 z "},"%":{"ha":956,"x_min":0,"x_max":0,"o":"m 695 1016 l 110 41 l 260 -49 l 845 927 z m 838 308 b 673 376 795 352 735 377 b 507 308 611 377 551 352 b 439 142 463 264 439 204 b 507 -23 439 80 463 21 b 673 -92 551 -67 611 -92 b 838 -23 735 -92 795 -67 b 907 142 882 21 907 80 b 838 308 907 204 882 264 z m 714 101 b 673 84 703 90 688 84 b 631 101 657 84 642 90 b 614 142 621 112 614 127 b 631 184 614 158 621 173 b 673 201 642 195 657 201 b 714 184 688 201 703 195 b 731 142 725 173 731 158 b 714 101 731 127 725 112 z m 283 591 b 448 660 345 591 404 616 b 517 825 492 703 517 763 b 448 991 517 887 492 947 b 283 1059 404 1035 345 1059 b 117 991 221 1059 161 1035 b 49 825 73 947 49 887 b 117 660 49 763 73 703 b 283 591 161 616 221 591 z m 241 867 b 283 884 252 878 267 884 b 324 867 298 884 313 878 b 341 825 335 856 341 841 b 324 784 341 810 335 795 b 283 767 313 773 298 767 b 241 784 267 767 252 773 b 224 825 230 795 224 810 b 241 867 224 841 230 856 z "},"&":{"ha":1257,"x_min":0,"x_max":0,"o":"m 1012 218 b 994 413 1027 283 1021 352 b 922 521 977 453 952 489 l 796 399 b 833 344 812 383 824 364 b 845 289 841 327 845 308 b 766 152 845 237 815 188 b 542 84 710 110 631 84 b 259 227 391 84 298 148 b 238 312 246 253 239 282 b 253 391 237 339 242 366 b 445 494 280 449 344 494 b 700 565 543 494 634 521 b 825 776 778 617 825 691 b 700 987 825 862 778 936 b 445 1059 634 1032 543 1059 b 189 987 346 1059 256 1032 b 64 776 112 936 64 862 b 175 575 64 697 106 626 b 93 463 141 544 113 506 b 63 307 71 414 61 360 b 102 149 64 252 78 198 b 542 -92 168 16 314 -92 b 871 12 669 -92 785 -52 b 925 60 890 26 908 43 l 1069 -69 l 1186 61 z m 287 841 b 445 884 326 868 382 884 b 603 841 508 884 564 868 b 650 776 632 822 650 799 b 603 712 650 754 632 731 b 445 669 564 685 508 669 b 287 712 382 669 326 685 b 240 776 258 731 240 754 b 287 841 240 799 258 822 z "},"'":{"ha":283,"x_min":0,"x_max":0,"o":"m 199 1007 b 238 1032 210 1019 223 1027 b 42 989 217 1136 58 1158 b 241 927 22 781 241 796 b 199 1007 241 959 225 989 z "},"‘":{"ha":283,"x_min":0,"x_max":0,"o":"m 199 1007 b 238 1032 210 1019 223 1027 b 42 989 217 1136 58 1158 b 241 927 22 781 241 796 b 199 1007 241 959 225 989 z "},"’":{"ha":283,"x_min":0,"x_max":0,"o":"m 199 1007 b 238 1032 210 1019 223 1027 b 42 989 217 1136 58 1158 b 241 927 22 781 241 796 b 199 1007 241 959 225 989 z "},"(":{"ha":625,"x_min":0,"x_max":0,"o":"m 584 884 l 584 1059 b 208 887 436 1059 304 994 b 208 80 7 656 7 312 b 584 -92 304 -26 436 -92 l 584 84 b 338 198 488 84 402 127 b 338 770 197 362 197 605 b 584 884 402 840 488 884 z "},")":{"ha":625,"x_min":0,"x_max":0,"o":"m 416 887 b 40 1059 320 994 187 1059 l 40 884 b 285 770 136 884 222 840 b 285 198 427 605 427 362 b 40 84 222 127 136 84 l 40 -92 b 416 80 187 -92 320 -26 b 416 887 617 312 617 656 z "},"*":{"ha":694,"x_min":0,"x_max":0,"o":"m 644 847 l 557 998 l 435 928 l 435 1069 l 259 1069 l 259 928 l 137 998 l 50 847 l 172 776 l 50 706 l 137 554 l 259 625 l 259 484 l 435 484 l 435 625 l 557 554 l 644 706 l 522 776 z "},"+":{"ha":683,"x_min":0,"x_max":0,"o":"m 429 572 l 429 776 l 253 776 l 253 572 l 49 572 l 49 396 l 253 396 l 253 191 l 429 191 l 429 396 l 634 396 l 634 572 z "},",":{"ha":290,"x_min":0,"x_max":0,"o":"m 44 94 b 87 14 44 62 60 32 b 48 -11 76 3 63 -6 b 244 32 69 -115 228 -137 b 44 94 264 240 44 226 z "},"-":{"ha":675,"x_min":0,"x_max":0,"o":"m 630 396 l 630 572 l 44 572 l 44 396 z "},".":{"ha":285,"x_min":0,"x_max":0,"o":"m 142 -4 b 240 94 196 -4 240 40 b 142 191 240 147 196 191 b 44 94 88 191 44 147 b 142 -4 44 40 88 -4 z "},"/":{"ha":875,"x_min":0,"x_max":0,"o":"m 655 1016 l 69 41 l 220 -49 l 805 927 z "},":":{"ha":301,"x_min":0,"x_max":0,"o":"m 150 533 b 248 630 204 533 248 576 b 150 728 248 684 204 728 b 53 630 96 728 53 684 b 150 533 53 576 96 533 z m 150 240 b 248 337 204 240 248 284 b 150 435 248 391 204 435 b 53 337 96 435 53 391 b 150 240 53 284 96 240 z "},";":{"ha":313,"x_min":0,"x_max":0,"o":"m 156 533 b 254 630 210 533 254 576 b 156 728 254 684 210 728 b 59 630 102 728 59 684 b 156 533 59 576 102 533 z m 56 338 b 98 258 56 306 71 276 b 59 233 87 246 74 238 b 255 276 80 129 239 107 b 56 338 275 484 56 469 z "},"<":{"ha":799,"x_min":0,"x_max":0,"o":"m 233 507 l 744 592 l 716 765 l 57 655 l 57 312 l 716 202 l 744 375 l 233 460 z "},"=":{"ha":694,"x_min":0,"x_max":0,"o":"m 639 304 l 639 479 l 54 479 l 54 304 z m 639 518 l 639 694 l 54 694 l 54 518 z "},">":{"ha":799,"x_min":0,"x_max":0,"o":"m 83 765 l 54 592 l 566 507 l 566 460 l 54 375 l 83 202 l 742 312 l 742 655 z "},"?":{"ha":1075,"x_min":0,"x_max":0,"o":"m 548 -4 b 646 94 602 -4 646 40 b 548 191 646 147 602 191 b 451 94 495 191 451 147 b 548 -4 451 40 495 -4 z m 1027 802 b 988 960 1025 857 1012 911 b 547 1201 922 1093 776 1201 b 219 1097 421 1201 304 1161 b 69 820 127 1028 69 930 l 245 820 b 324 957 245 872 275 921 b 547 1025 380 999 459 1025 b 831 882 698 1025 792 961 b 852 798 844 856 851 827 b 837 718 853 770 848 743 b 456 332 747 521 424 730 b 461 235 458 305 461 273 l 636 235 b 631 346 636 278 633 315 b 996 646 615 540 865 357 b 1027 802 1018 695 1029 749 z "},"@":{"ha":1321,"x_min":0,"x_max":0,"o":"m 1204 1004 b 1071 1058 1168 1039 1121 1058 l 632 1058 b 226 890 480 1058 334 998 b 57 483 118 782 57 636 b 226 75 57 330 118 184 b 632 -95 333 -33 480 -95 l 876 -95 b 1005 -79 920 -95 963 -89 b 1126 -35 1047 -69 1088 -54 l 1050 123 b 966 95 1023 111 995 101 b 876 88 936 89 906 87 l 632 88 b 350 203 527 87 425 129 b 233 485 275 278 233 379 b 350 766 233 591 275 692 b 632 883 425 841 527 883 l 1071 883 b 1080 880 1074 883 1077 882 b 1084 874 1082 879 1084 876 l 1084 484 b 1080 477 1084 481 1082 479 b 1072 474 1078 475 1075 474 b 1064 477 1069 474 1067 475 b 1061 484 1062 479 1061 481 l 1061 485 l 1061 485 b 946 733 1060 580 1018 671 b 681 830 872 796 778 831 b 416 732 584 831 490 796 b 301 484 345 669 301 581 b 416 236 301 386 345 299 b 681 138 490 172 584 137 b 946 236 778 137 873 172 b 1010 309 970 257 992 282 b 1071 298 1029 302 1050 298 b 1204 353 1121 298 1168 318 b 1259 484 1239 387 1259 434 l 1259 874 b 1204 1004 1259 923 1239 970 z m 886 484 b 830 367 885 439 865 396 b 681 313 789 331 736 313 b 532 367 627 313 574 331 b 476 484 498 396 477 439 b 532 601 477 529 498 572 b 681 654 574 636 627 655 b 830 601 736 655 789 636 b 886 484 865 572 885 529 z "},"A":{"ha":1086,"x_min":0,"x_max":0,"o":"m 184 -3 l 504 797 l 581 797 l 710 475 l 445 475 l 445 299 l 780 299 l 901 -3 l 1090 -3 l 699 972 l 386 972 l -4 -3 z "},"À":{"ha":1086,"x_min":0,"x_max":0,"o":"m 184 -3 l 504 797 l 581 797 l 710 475 l 445 475 l 445 299 l 780 299 l 901 -3 l 1090 -3 l 699 972 l 386 972 l -4 -3 z "},"Á":{"ha":1086,"x_min":0,"x_max":0,"o":"m 184 -3 l 504 797 l 581 797 l 710 475 l 445 475 l 445 299 l 780 299 l 901 -3 l 1090 -3 l 699 972 l 386 972 l -4 -3 z "},"Â":{"ha":1086,"x_min":0,"x_max":0,"o":"m 184 -3 l 504 797 l 581 797 l 710 475 l 445 475 l 445 299 l 780 299 l 901 -3 l 1090 -3 l 699 972 l 386 972 l -4 -3 z "},"Ã":{"ha":1086,"x_min":0,"x_max":0,"o":"m 184 -3 l 504 797 l 581 797 l 710 475 l 445 475 l 445 299 l 780 299 l 901 -3 l 1090 -3 l 699 972 l 386 972 l -4 -3 z "},"Ä":{"ha":1086,"x_min":0,"x_max":0,"o":"m 184 -3 l 504 797 l 581 797 l 710 475 l 445 475 l 445 299 l 780 299 l 901 -3 l 1090 -3 l 699 972 l 386 972 l -4 -3 z "},"Å":{"ha":1086,"x_min":0,"x_max":0,"o":"m 184 -3 l 504 797 l 581 797 l 710 475 l 445 475 l 445 299 l 780 299 l 901 -3 l 1090 -3 l 699 972 l 386 972 l -4 -3 z "},"B":{"ha":1049,"x_min":0,"x_max":0,"o":"m 242 680 l 242 797 l 642 797 b 718 765 671 797 698 785 b 749 689 738 745 749 718 l 749 680 b 718 604 749 651 738 624 b 642 572 698 584 671 572 l 67 572 l 67 -3 l 740 -3 b 939 80 815 -3 887 27 b 1023 280 993 133 1023 205 l 1023 289 b 940 489 1023 364 993 436 b 884 533 923 506 904 521 b 925 680 911 577 925 628 l 925 689 b 842 889 925 764 895 836 b 642 972 789 942 717 972 l 67 972 l 67 680 z m 740 397 b 815 365 768 397 795 385 b 847 289 836 345 847 318 l 847 280 b 815 204 847 251 836 224 b 740 172 795 184 768 172 l 242 172 l 242 397 z "},"C":{"ha":954,"x_min":0,"x_max":0,"o":"m 780 330 b 760 296 774 318 767 307 b 736 265 752 285 745 275 b 640 197 709 235 677 212 b 509 172 598 180 554 172 b 229 353 363 172 269 252 b 205 485 213 395 204 440 b 229 616 204 529 213 574 b 509 797 269 717 363 797 b 641 772 554 797 599 789 b 738 702 678 756 711 732 b 760 673 746 693 753 683 b 779 640 767 662 773 651 l 936 718 b 906 770 927 736 917 753 b 870 817 895 786 883 802 b 710 933 826 867 771 907 b 509 972 646 960 578 973 b 66 680 279 972 132 844 b 29 485 42 618 29 552 b 66 289 29 417 42 351 b 509 -3 132 125 279 -3 b 707 35 577 -4 644 9 b 867 149 768 60 823 99 b 905 198 881 164 893 181 b 937 253 917 216 927 234 z "},"Ç":{"ha":954,"x_min":0,"x_max":0,"o":"m 780 330 b 760 296 774 318 767 307 b 736 265 752 285 745 275 b 640 197 709 235 677 212 b 509 172 598 180 554 172 b 229 353 363 172 269 252 b 205 485 213 395 204 440 b 229 616 204 529 213 574 b 509 797 269 717 363 797 b 641 772 554 797 599 789 b 738 702 678 756 711 732 b 760 673 746 693 753 683 b 779 640 767 662 773 651 l 936 718 b 906 770 927 736 917 753 b 870 817 895 786 883 802 b 710 933 826 867 771 907 b 509 972 646 960 578 973 b 66 680 279 972 132 844 b 29 485 42 618 29 552 b 66 289 29 417 42 351 b 509 -3 132 125 279 -3 b 707 35 577 -4 644 9 b 867 149 768 60 823 99 b 905 198 881 164 893 181 b 937 253 917 216 927 234 z "},"D":{"ha":1054,"x_min":0,"x_max":0,"o":"m 352 797 l 625 797 b 825 624 728 797 795 721 b 845 487 838 580 845 534 b 824 349 845 440 838 394 b 625 172 794 250 727 172 l 245 172 l 245 972 l 69 972 l 69 -3 l 625 -3 b 992 298 817 -3 939 129 b 1020 487 1010 359 1020 423 b 992 677 1020 551 1011 615 b 625 972 940 843 819 972 l 352 972 z "},"E":{"ha":972,"x_min":0,"x_max":0,"o":"m 938 972 l 69 972 l 69 -3 l 938 -3 l 938 172 l 245 172 l 245 797 l 938 797 z m 352 572 l 352 397 l 840 397 l 840 572 z "},"È":{"ha":972,"x_min":0,"x_max":0,"o":"m 938 972 l 69 972 l 69 -3 l 938 -3 l 938 172 l 245 172 l 245 797 l 938 797 z m 352 572 l 352 397 l 840 397 l 840 572 z "},"É":{"ha":972,"x_min":0,"x_max":0,"o":"m 938 972 l 69 972 l 69 -3 l 938 -3 l 938 172 l 245 172 l 245 797 l 938 797 z m 352 572 l 352 397 l 840 397 l 840 572 z "},"Ê":{"ha":972,"x_min":0,"x_max":0,"o":"m 938 972 l 69 972 l 69 -3 l 938 -3 l 938 172 l 245 172 l 245 797 l 938 797 z m 352 572 l 352 397 l 840 397 l 840 572 z "},"Ë":{"ha":972,"x_min":0,"x_max":0,"o":"m 938 972 l 69 972 l 69 -3 l 938 -3 l 938 172 l 245 172 l 245 797 l 938 797 z m 352 572 l 352 397 l 840 397 l 840 572 z "},"F":{"ha":950,"x_min":0,"x_max":0,"o":"m 938 972 l 69 972 l 69 -3 l 245 -3 l 245 797 l 938 797 z m 352 572 l 352 397 l 840 397 l 840 572 z "},"G":{"ha":1011,"x_min":0,"x_max":0,"o":"m 845 843 b 692 940 801 886 749 919 b 509 972 634 962 572 973 b 66 680 279 972 132 844 b 29 485 42 618 29 552 b 66 289 29 417 42 351 b 509 -3 132 125 279 -3 b 848 129 655 -3 768 49 b 989 474 940 220 987 347 l 989 567 l 814 567 l 814 477 b 725 254 813 394 783 311 b 509 172 676 204 604 172 b 229 353 363 172 269 252 b 205 485 213 395 204 440 b 229 616 204 529 213 574 b 509 797 269 717 363 797 b 631 776 551 797 592 790 b 723 718 665 763 696 743 z m 761 392 l 761 567 l 410 567 l 410 392 z "},"H":{"ha":1090,"x_min":0,"x_max":0,"o":"m 67 972 l 67 777 l 242 777 l 242 972 z m 242 572 l 242 680 l 67 680 l 67 -3 l 242 -3 l 242 397 l 847 397 l 847 289 l 1023 289 l 1023 972 l 847 972 l 847 572 z m 847 192 l 847 -3 l 1023 -3 l 1023 192 z "},"I":{"ha":314,"x_min":0,"x_max":0,"o":"m 245 -3 l 245 972 l 69 972 l 69 -3 z "},"Ì":{"ha":314,"x_min":0,"x_max":0,"o":"m 245 -3 l 245 972 l 69 972 l 69 -3 z "},"Í":{"ha":314,"x_min":0,"x_max":0,"o":"m 245 -3 l 245 972 l 69 972 l 69 -3 z "},"Î":{"ha":314,"x_min":0,"x_max":0,"o":"m 245 -3 l 245 972 l 69 972 l 69 -3 z "},"Ï":{"ha":314,"x_min":0,"x_max":0,"o":"m 245 -3 l 245 972 l 69 972 l 69 -3 z "},"J":{"ha":872,"x_min":0,"x_max":0,"o":"m 437 800 l 581 800 l 581 975 l 437 975 z m 817 975 l 641 975 l 641 390 b 601 272 643 347 628 305 b 495 199 573 239 536 214 b 342 172 446 181 394 172 b 106 245 253 172 165 197 l -6 110 b 342 -3 86 35 215 -3 b 558 36 416 -3 489 10 b 736 161 627 61 689 104 b 817 390 790 225 818 306 z "},"K":{"ha":1006,"x_min":0,"x_max":0,"o":"m 67 972 l 67 221 l 242 221 l 242 366 l 687 -3 l 961 -3 l 380 480 l 1020 972 l 733 972 l 242 595 l 242 972 z m 242 126 l 67 126 l 67 -3 l 242 -3 z "},"L":{"ha":940,"x_min":0,"x_max":0,"o":"m 69 972 l 69 -3 l 245 -3 l 245 972 z m 352 -3 l 938 -3 l 938 172 l 352 172 z "},"M":{"ha":1285,"x_min":0,"x_max":0,"o":"m 242 -3 l 242 192 l 67 192 l 67 -3 z m 67 289 l 242 289 l 242 797 l 281 797 l 476 -3 l 808 -3 l 1003 797 l 1042 797 l 1042 289 l 1218 289 l 1218 972 l 866 972 l 671 172 l 613 172 l 418 972 l 67 972 z m 1042 192 l 1042 -3 l 1218 -3 l 1218 192 z "},"N":{"ha":1090,"x_min":0,"x_max":0,"o":"m 242 -3 l 242 192 l 67 192 l 67 -3 z m 67 289 l 242 289 l 242 797 l 295 797 l 685 -3 l 1023 -3 l 1023 680 l 847 680 l 847 172 l 794 172 l 404 972 l 67 972 z m 1023 777 l 1023 972 l 847 972 l 847 777 z "},"Ñ":{"ha":1090,"x_min":0,"x_max":0,"o":"m 242 -3 l 242 192 l 67 192 l 67 -3 z m 67 289 l 242 289 l 242 797 l 295 797 l 685 -3 l 1023 -3 l 1023 680 l 847 680 l 847 172 l 794 172 l 404 972 l 67 972 z m 1023 777 l 1023 972 l 847 972 l 847 777 z "},"O":{"ha":1019,"x_min":0,"x_max":0,"o":"m 432 789 b 469 795 445 792 457 794 b 509 797 481 796 494 797 b 790 616 656 797 750 717 b 814 485 806 574 814 529 b 790 353 814 440 806 395 b 509 172 750 252 656 172 b 293 254 414 172 342 205 b 227 358 264 284 242 319 b 205 485 212 398 205 441 b 294 716 205 571 235 657 l 171 840 b 29 485 76 747 29 615 b 63 296 29 420 41 356 b 169 131 87 234 122 178 b 509 -3 249 50 363 -3 b 952 289 739 -3 887 125 b 990 485 977 351 990 417 b 952 680 990 552 977 618 b 509 972 887 844 739 972 b 452 969 490 972 471 971 b 396 961 433 967 415 964 z "},"Ò":{"ha":1019,"x_min":0,"x_max":0,"o":"m 432 789 b 469 795 445 792 457 794 b 509 797 481 796 494 797 b 790 616 656 797 750 717 b 814 485 806 574 814 529 b 790 353 814 440 806 395 b 509 172 750 252 656 172 b 293 254 414 172 342 205 b 227 358 264 284 242 319 b 205 485 212 398 205 441 b 294 716 205 571 235 657 l 171 840 b 29 485 76 747 29 615 b 63 296 29 420 41 356 b 169 131 87 234 122 178 b 509 -3 249 50 363 -3 b 952 289 739 -3 887 125 b 990 485 977 351 990 417 b 952 680 990 552 977 618 b 509 972 887 844 739 972 b 452 969 490 972 471 971 b 396 961 433 967 415 964 z "},"Ó":{"ha":1019,"x_min":0,"x_max":0,"o":"m 432 789 b 469 795 445 792 457 794 b 509 797 481 796 494 797 b 790 616 656 797 750 717 b 814 485 806 574 814 529 b 790 353 814 440 806 395 b 509 172 750 252 656 172 b 293 254 414 172 342 205 b 227 358 264 284 242 319 b 205 485 212 398 205 441 b 294 716 205 571 235 657 l 171 840 b 29 485 76 747 29 615 b 63 296 29 420 41 356 b 169 131 87 234 122 178 b 509 -3 249 50 363 -3 b 952 289 739 -3 887 125 b 990 485 977 351 990 417 b 952 680 990 552 977 618 b 509 972 887 844 739 972 b 452 969 490 972 471 971 b 396 961 433 967 415 964 z "},"Ô":{"ha":1019,"x_min":0,"x_max":0,"o":"m 432 789 b 469 795 445 792 457 794 b 509 797 481 796 494 797 b 790 616 656 797 750 717 b 814 485 806 574 814 529 b 790 353 814 440 806 395 b 509 172 750 252 656 172 b 293 254 414 172 342 205 b 227 358 264 284 242 319 b 205 485 212 398 205 441 b 294 716 205 571 235 657 l 171 840 b 29 485 76 747 29 615 b 63 296 29 420 41 356 b 169 131 87 234 122 178 b 509 -3 249 50 363 -3 b 952 289 739 -3 887 125 b 990 485 977 351 990 417 b 952 680 990 552 977 618 b 509 972 887 844 739 972 b 452 969 490 972 471 971 b 396 961 433 967 415 964 z "},"Õ":{"ha":1019,"x_min":0,"x_max":0,"o":"m 432 789 b 469 795 445 792 457 794 b 509 797 481 796 494 797 b 790 616 656 797 750 717 b 814 485 806 574 814 529 b 790 353 814 440 806 395 b 509 172 750 252 656 172 b 293 254 414 172 342 205 b 227 358 264 284 242 319 b 205 485 212 398 205 441 b 294 716 205 571 235 657 l 171 840 b 29 485 76 747 29 615 b 63 296 29 420 41 356 b 169 131 87 234 122 178 b 509 -3 249 50 363 -3 b 952 289 739 -3 887 125 b 990 485 977 351 990 417 b 952 680 990 552 977 618 b 509 972 887 844 739 972 b 452 969 490 972 471 971 b 396 961 433 967 415 964 z "},"Ö":{"ha":1019,"x_min":0,"x_max":0,"o":"m 432 789 b 469 795 445 792 457 794 b 509 797 481 796 494 797 b 790 616 656 797 750 717 b 814 485 806 574 814 529 b 790 353 814 440 806 395 b 509 172 750 252 656 172 b 293 254 414 172 342 205 b 227 358 264 284 242 319 b 205 485 212 398 205 441 b 294 716 205 571 235 657 l 171 840 b 29 485 76 747 29 615 b 63 296 29 420 41 356 b 169 131 87 234 122 178 b 509 -3 249 50 363 -3 b 952 289 739 -3 887 125 b 990 485 977 351 990 417 b 952 680 990 552 977 618 b 509 972 887 844 739 972 b 452 969 490 972 471 971 b 396 961 433 967 415 964 z "},"Ø":{"ha":1019,"x_min":0,"x_max":0,"o":"m 432 789 b 469 795 445 792 457 794 b 509 797 481 796 494 797 b 790 616 656 797 750 717 b 814 485 806 574 814 529 b 790 353 814 440 806 395 b 509 172 750 252 656 172 b 293 254 414 172 342 205 b 227 358 264 284 242 319 b 205 485 212 398 205 441 b 294 716 205 571 235 657 l 171 840 b 29 485 76 747 29 615 b 63 296 29 420 41 356 b 169 131 87 234 122 178 b 509 -3 249 50 363 -3 b 952 289 739 -3 887 125 b 990 485 977 351 990 417 b 952 680 990 552 977 618 b 509 972 887 844 739 972 b 452 969 490 972 471 971 b 396 961 433 967 415 964 z "},"P":{"ha":946,"x_min":0,"x_max":0,"o":"m 237 680 l 237 797 l 637 797 b 712 765 665 797 692 785 b 744 689 732 745 744 718 l 744 582 b 712 506 744 554 732 526 b 637 475 692 486 665 475 l 61 475 l 61 -3 l 237 -3 l 237 299 l 637 299 b 836 382 712 299 784 329 b 919 582 890 435 919 507 l 919 689 b 836 889 919 764 890 836 b 637 972 784 942 712 972 l 61 972 l 61 680 z "},"Q":{"ha":1060,"x_min":0,"x_max":0,"o":"m 433 789 b 469 795 445 792 457 794 b 509 797 481 796 494 797 b 790 616 656 797 750 717 b 814 485 806 574 814 529 b 790 353 814 440 806 395 b 756 291 781 331 770 310 l 598 449 l 474 325 l 612 187 b 509 172 579 177 544 172 b 293 254 414 172 342 205 b 227 358 264 284 242 319 b 205 485 212 398 205 441 b 294 716 205 571 235 657 l 171 840 b 29 485 76 747 29 615 b 63 296 29 420 41 356 b 169 131 87 234 122 178 b 509 -3 249 50 363 -3 b 747 53 602 -3 681 17 l 802 -3 l 1051 -3 l 882 166 b 952 289 911 203 935 244 b 990 485 977 351 990 417 b 952 680 990 552 977 618 b 509 972 887 844 739 972 b 452 969 490 972 471 971 b 396 961 433 967 415 964 z "},"R":{"ha":951,"x_min":0,"x_max":0,"o":"m 237 680 l 237 797 l 637 797 b 712 765 665 797 692 785 b 744 689 733 745 744 718 l 744 582 b 712 506 744 554 732 526 b 637 475 692 486 665 475 l 61 475 l 61 -3 l 237 -3 l 237 299 l 307 299 l 603 -3 l 848 -3 l 552 299 l 637 299 b 836 382 712 299 784 329 b 919 582 890 435 919 507 l 919 689 b 836 889 919 764 890 836 b 637 972 784 942 712 972 l 61 972 l 61 680 z "},"S":{"ha":1035,"x_min":0,"x_max":0,"o":"m 422 397 l 422 572 l 327 572 b 247 605 297 572 268 584 b 214 684 226 626 214 655 b 247 764 214 714 226 743 b 327 797 268 785 297 797 l 707 797 b 786 764 737 797 765 785 b 819 684 807 743 819 714 l 995 684 b 910 888 995 761 964 834 b 707 972 856 942 783 972 l 327 972 b 123 888 250 972 177 942 b 39 685 69 834 39 761 b 123 481 39 608 69 535 b 327 397 177 427 250 397 z m 39 285 b 327 -3 39 126 168 -3 l 707 -3 b 973 174 823 -3 928 67 b 910 488 1017 282 993 406 b 707 572 856 542 783 572 l 612 572 l 612 397 l 707 397 b 819 285 769 397 819 347 b 707 172 819 223 769 172 l 327 172 b 214 285 265 173 215 223 z "},"T":{"ha":879,"x_min":0,"x_max":0,"o":"m 0 797 l 244 797 l 244 972 l 0 972 z m 878 972 l 351 972 l 351 -3 l 527 -3 l 527 797 l 878 797 z "},"U":{"ha":964,"x_min":0,"x_max":0,"o":"m 731 972 l 731 377 b 671 233 731 323 710 271 b 527 172 633 194 581 172 l 429 172 b 340 192 398 172 368 179 b 235 310 291 216 254 258 b 224 377 228 332 224 354 l 224 582 l 49 582 l 49 377 b 132 141 49 291 78 208 b 264 35 167 96 213 60 b 429 -3 316 10 372 -3 l 527 -3 b 795 109 627 -3 724 37 b 907 377 867 180 907 276 l 907 972 z m 49 777 l 224 777 l 224 972 l 49 972 z "},"Ù":{"ha":964,"x_min":0,"x_max":0,"o":"m 731 972 l 731 377 b 671 233 731 323 710 271 b 527 172 633 194 581 172 l 429 172 b 340 192 398 172 368 179 b 235 310 291 216 254 258 b 224 377 228 332 224 354 l 224 582 l 49 582 l 49 377 b 132 141 49 291 78 208 b 264 35 167 96 213 60 b 429 -3 316 10 372 -3 l 527 -3 b 795 109 627 -3 724 37 b 907 377 867 180 907 276 l 907 972 z m 49 777 l 224 777 l 224 972 l 49 972 z "},"Ú":{"ha":964,"x_min":0,"x_max":0,"o":"m 731 972 l 731 377 b 671 233 731 323 710 271 b 527 172 633 194 581 172 l 429 172 b 340 192 398 172 368 179 b 235 310 291 216 254 258 b 224 377 228 332 224 354 l 224 582 l 49 582 l 49 377 b 132 141 49 291 78 208 b 264 35 167 96 213 60 b 429 -3 316 10 372 -3 l 527 -3 b 795 109 627 -3 724 37 b 907 377 867 180 907 276 l 907 972 z m 49 777 l 224 777 l 224 972 l 49 972 z "},"Û":{"ha":964,"x_min":0,"x_max":0,"o":"m 731 972 l 731 377 b 671 233 731 323 710 271 b 527 172 633 194 581 172 l 429 172 b 340 192 398 172 368 179 b 235 310 291 216 254 258 b 224 377 228 332 224 354 l 224 582 l 49 582 l 49 377 b 132 141 49 291 78 208 b 264 35 167 96 213 60 b 429 -3 316 10 372 -3 l 527 -3 b 795 109 627 -3 724 37 b 907 377 867 180 907 276 l 907 972 z m 49 777 l 224 777 l 224 972 l 49 972 z "},"Ü":{"ha":964,"x_min":0,"x_max":0,"o":"m 731 972 l 731 377 b 671 233 731 323 710 271 b 527 172 633 194 581 172 l 429 172 b 340 192 398 172 368 179 b 235 310 291 216 254 258 b 224 377 228 332 224 354 l 224 582 l 49 582 l 49 377 b 132 141 49 291 78 208 b 264 35 167 96 213 60 b 429 -3 316 10 372 -3 l 527 -3 b 795 109 627 -3 724 37 b 907 377 867 180 907 276 l 907 972 z m 49 777 l 224 777 l 224 972 l 49 972 z "},"V":{"ha":1083,"x_min":0,"x_max":0,"o":"m -6 972 l 87 741 l 250 806 l 183 972 z m 295 693 l 132 628 l 385 -3 l 698 -3 l 1088 972 l 900 972 l 580 172 l 503 172 z "},"W":{"ha":1285,"x_min":0,"x_max":0,"o":"m 67 972 l 67 777 l 242 777 l 242 972 z m 242 680 l 67 680 l 67 -3 l 418 -3 l 613 797 l 671 797 l 866 -3 l 1218 -3 l 1218 680 l 1042 680 l 1042 172 l 1003 172 l 808 972 l 476 972 l 281 172 l 242 172 z m 1218 777 l 1218 972 l 1042 972 l 1042 777 z "},"X":{"ha":1001,"x_min":0,"x_max":0,"o":"m -1 972 l 264 641 l 400 750 l 222 972 z m 1003 972 l 779 972 l -1 -3 l 222 -3 l 501 345 l 779 -3 l 1003 -3 l 612 485 z "},"Y":{"ha":974,"x_min":0,"x_max":0,"o":"m -15 972 l 250 641 l 387 750 l 208 972 z m 765 972 l 397 512 l 397 -3 l 572 -3 l 572 452 l 989 972 z "},"Ý":{"ha":974,"x_min":0,"x_max":0,"o":"m -15 972 l 250 641 l 387 750 l 208 972 z m 765 972 l 397 512 l 397 -3 l 572 -3 l 572 452 l 989 972 z "},"Ÿ":{"ha":974,"x_min":0,"x_max":0,"o":"m -15 972 l 250 641 l 387 750 l 208 972 z m 765 972 l 397 512 l 397 -3 l 572 -3 l 572 452 l 989 972 z "},"Z":{"ha":992,"x_min":0,"x_max":0,"o":"m 105 797 l 288 797 l 288 972 l 105 972 z m 398 972 l 398 797 l 756 797 l 18 225 l 18 -3 l 886 -3 l 886 172 l 236 172 l 973 744 l 973 972 z "},"[":{"ha":406,"x_min":0,"x_max":0,"o":"m 352 884 l 352 1059 l 201 1059 b 69 928 128 1059 70 1000 l 69 40 b 201 -92 70 -33 128 -92 l 352 -92 l 352 84 l 245 84 l 245 884 z "},"\\":{"ha":875,"x_min":0,"x_max":0,"o":"m 220 1016 l 69 927 l 655 -49 l 805 41 z "},"]":{"ha":406,"x_min":0,"x_max":0,"o":"m 297 1021 b 204 1059 272 1045 239 1059 l 53 1059 l 53 884 l 160 884 l 160 84 l 53 84 l 53 -92 l 204 -92 b 336 40 277 -92 336 -33 l 336 928 b 297 1021 336 963 322 996 z "},"^":{"ha":558,"x_min":0,"x_max":0,"o":"m 396 1059 l 161 1059 l 47 603 l 217 560 l 279 805 l 340 560 l 510 603 z "},"_":{"ha":968,"x_min":0,"x_max":0,"o":"m 922 -4 l 922 171 l 44 171 l 44 -4 z "},"`":{"ha":404,"x_min":0,"x_max":0,"o":"m 360 718 l 165 1108 l 8 1030 l 203 640 z "},"a":{"ha":1086,"x_min":0,"x_max":0,"o":"m 184 -3 l 504 797 l 581 797 l 710 475 l 445 475 l 445 299 l 780 299 l 901 -3 l 1090 -3 l 699 972 l 386 972 l -4 -3 z "},"à":{"ha":1086,"x_min":0,"x_max":0,"o":"m 184 -3 l 504 797 l 581 797 l 710 475 l 445 475 l 445 299 l 780 299 l 901 -3 l 1090 -3 l 699 972 l 386 972 l -4 -3 z "},"á":{"ha":1086,"x_min":0,"x_max":0,"o":"m 184 -3 l 504 797 l 581 797 l 710 475 l 445 475 l 445 299 l 780 299 l 901 -3 l 1090 -3 l 699 972 l 386 972 l -4 -3 z "},"â":{"ha":1086,"x_min":0,"x_max":0,"o":"m 184 -3 l 504 797 l 581 797 l 710 475 l 445 475 l 445 299 l 780 299 l 901 -3 l 1090 -3 l 699 972 l 386 972 l -4 -3 z "},"ã":{"ha":1086,"x_min":0,"x_max":0,"o":"m 184 -3 l 504 797 l 581 797 l 710 475 l 445 475 l 445 299 l 780 299 l 901 -3 l 1090 -3 l 699 972 l 386 972 l -4 -3 z "},"ä":{"ha":1086,"x_min":0,"x_max":0,"o":"m 184 -3 l 504 797 l 581 797 l 710 475 l 445 475 l 445 299 l 780 299 l 901 -3 l 1090 -3 l 699 972 l 386 972 l -4 -3 z "},"å":{"ha":1086,"x_min":0,"x_max":0,"o":"m 184 -3 l 504 797 l 581 797 l 710 475 l 445 475 l 445 299 l 780 299 l 901 -3 l 1090 -3 l 699 972 l 386 972 l -4 -3 z "},"b":{"ha":1049,"x_min":0,"x_max":0,"o":"m 242 680 l 242 797 l 642 797 b 718 765 671 797 698 785 b 749 689 738 745 749 718 l 749 680 b 718 604 749 651 738 624 b 642 572 698 584 671 572 l 67 572 l 67 -3 l 740 -3 b 939 80 815 -3 887 27 b 1023 280 993 133 1023 205 l 1023 289 b 940 489 1023 364 993 436 b 884 533 923 506 904 521 b 925 680 911 577 925 628 l 925 689 b 842 889 925 764 895 836 b 642 972 789 942 717 972 l 67 972 l 67 680 z m 740 397 b 815 365 768 397 795 385 b 847 289 836 345 847 318 l 847 280 b 815 204 847 251 836 224 b 740 172 795 184 768 172 l 242 172 l 242 397 z "},"c":{"ha":954,"x_min":0,"x_max":0,"o":"m 780 330 b 760 296 774 318 767 307 b 736 265 752 285 745 275 b 640 197 709 235 677 212 b 509 172 598 180 554 172 b 229 353 363 172 269 252 b 205 485 213 395 204 440 b 229 616 204 529 213 574 b 509 797 269 717 363 797 b 641 772 554 797 599 789 b 738 702 678 756 711 732 b 760 673 746 693 753 683 b 779 640 767 662 773 651 l 936 718 b 906 770 927 736 917 753 b 870 817 895 786 883 802 b 710 933 826 867 771 907 b 509 972 646 960 578 973 b 66 680 279 972 132 844 b 29 485 42 618 29 552 b 66 289 29 417 42 351 b 509 -3 132 125 279 -3 b 707 35 577 -4 644 9 b 867 149 768 60 823 99 b 905 198 881 164 893 181 b 937 253 917 216 927 234 z "},"ç":{"ha":954,"x_min":0,"x_max":0,"o":"m 780 330 b 760 296 774 318 767 307 b 736 265 752 285 745 275 b 640 197 709 235 677 212 b 509 172 598 180 554 172 b 229 353 363 172 269 252 b 205 485 213 395 204 440 b 229 616 204 529 213 574 b 509 797 269 717 363 797 b 641 772 554 797 599 789 b 738 702 678 756 711 732 b 760 673 746 693 753 683 b 779 640 767 662 773 651 l 936 718 b 906 770 927 736 917 753 b 870 817 895 786 883 802 b 710 933 826 867 771 907 b 509 972 646 960 578 973 b 66 680 279 972 132 844 b 29 485 42 618 29 552 b 66 289 29 417 42 351 b 509 -3 132 125 279 -3 b 707 35 577 -4 644 9 b 867 149 768 60 823 99 b 905 198 881 164 893 181 b 937 253 917 216 927 234 z "},"d":{"ha":1054,"x_min":0,"x_max":0,"o":"m 352 797 l 625 797 b 825 624 728 797 795 721 b 845 487 838 580 845 534 b 824 349 845 440 838 394 b 625 172 794 250 727 172 l 245 172 l 245 972 l 69 972 l 69 -3 l 625 -3 b 992 298 817 -3 939 129 b 1020 487 1010 359 1020 423 b 992 677 1020 551 1011 615 b 625 972 940 843 819 972 l 352 972 z "},"e":{"ha":972,"x_min":0,"x_max":0,"o":"m 938 972 l 69 972 l 69 -3 l 938 -3 l 938 172 l 245 172 l 245 797 l 938 797 z m 352 572 l 352 397 l 840 397 l 840 572 z "},"è":{"ha":972,"x_min":0,"x_max":0,"o":"m 938 972 l 69 972 l 69 -3 l 938 -3 l 938 172 l 245 172 l 245 797 l 938 797 z m 352 572 l 352 397 l 840 397 l 840 572 z "},"é":{"ha":972,"x_min":0,"x_max":0,"o":"m 938 972 l 69 972 l 69 -3 l 938 -3 l 938 172 l 245 172 l 245 797 l 938 797 z m 352 572 l 352 397 l 840 397 l 840 572 z "},"ê":{"ha":972,"x_min":0,"x_max":0,"o":"m 938 972 l 69 972 l 69 -3 l 938 -3 l 938 172 l 245 172 l 245 797 l 938 797 z m 352 572 l 352 397 l 840 397 l 840 572 z "},"ë":{"ha":972,"x_min":0,"x_max":0,"o":"m 938 972 l 69 972 l 69 -3 l 938 -3 l 938 172 l 245 172 l 245 797 l 938 797 z m 352 572 l 352 397 l 840 397 l 840 572 z "},"f":{"ha":950,"x_min":0,"x_max":0,"o":"m 938 972 l 69 972 l 69 -3 l 245 -3 l 245 797 l 938 797 z m 352 572 l 352 397 l 840 397 l 840 572 z "},"g":{"ha":1011,"x_min":0,"x_max":0,"o":"m 845 843 b 692 940 801 886 749 919 b 509 972 634 962 572 973 b 66 680 279 972 132 844 b 29 485 42 618 29 552 b 66 289 29 417 42 351 b 509 -3 132 125 279 -3 b 848 129 655 -3 768 49 b 989 474 940 220 987 347 l 989 567 l 814 567 l 814 477 b 725 254 813 394 783 311 b 509 172 676 204 604 172 b 229 353 363 172 269 252 b 205 485 213 395 204 440 b 229 616 204 529 213 574 b 509 797 269 717 363 797 b 631 776 551 797 592 790 b 723 718 665 763 696 743 z m 761 392 l 761 567 l 410 567 l 410 392 z "},"h":{"ha":1090,"x_min":0,"x_max":0,"o":"m 67 972 l 67 777 l 242 777 l 242 972 z m 242 572 l 242 680 l 67 680 l 67 -3 l 242 -3 l 242 397 l 847 397 l 847 289 l 1023 289 l 1023 972 l 847 972 l 847 572 z m 847 192 l 847 -3 l 1023 -3 l 1023 192 z "},"i":{"ha":314,"x_min":0,"x_max":0,"o":"m 245 -3 l 245 972 l 69 972 l 69 -3 z "},"ì":{"ha":314,"x_min":0,"x_max":0,"o":"m 245 -3 l 245 972 l 69 972 l 69 -3 z "},"í":{"ha":314,"x_min":0,"x_max":0,"o":"m 245 -3 l 245 972 l 69 972 l 69 -3 z "},"î":{"ha":314,"x_min":0,"x_max":0,"o":"m 245 -3 l 245 972 l 69 972 l 69 -3 z "},"ï":{"ha":314,"x_min":0,"x_max":0,"o":"m 245 -3 l 245 972 l 69 972 l 69 -3 z "},"j":{"ha":872,"x_min":0,"x_max":0,"o":"m 437 800 l 581 800 l 581 975 l 437 975 z m 817 975 l 641 975 l 641 390 b 601 272 643 347 628 305 b 495 199 573 239 536 214 b 342 172 446 181 394 172 b 106 245 253 172 165 197 l -6 110 b 342 -3 86 35 215 -3 b 558 36 416 -3 489 10 b 736 161 627 61 689 104 b 817 390 790 225 818 306 z "},"k":{"ha":1006,"x_min":0,"x_max":0,"o":"m 67 972 l 67 221 l 242 221 l 242 366 l 687 -3 l 961 -3 l 380 480 l 1020 972 l 733 972 l 242 595 l 242 972 z m 242 126 l 67 126 l 67 -3 l 242 -3 z "},"l":{"ha":940,"x_min":0,"x_max":0,"o":"m 69 972 l 69 -3 l 245 -3 l 245 972 z m 352 -3 l 938 -3 l 938 172 l 352 172 z "},"m":{"ha":1285,"x_min":0,"x_max":0,"o":"m 242 -3 l 242 192 l 67 192 l 67 -3 z m 67 289 l 242 289 l 242 797 l 281 797 l 476 -3 l 808 -3 l 1003 797 l 1042 797 l 1042 289 l 1218 289 l 1218 972 l 866 972 l 671 172 l 613 172 l 418 972 l 67 972 z m 1042 192 l 1042 -3 l 1218 -3 l 1218 192 z "},"n":{"ha":1090,"x_min":0,"x_max":0,"o":"m 242 -3 l 242 192 l 67 192 l 67 -3 z m 67 289 l 242 289 l 242 797 l 295 797 l 685 -3 l 1023 -3 l 1023 680 l 847 680 l 847 172 l 794 172 l 404 972 l 67 972 z m 1023 777 l 1023 972 l 847 972 l 847 777 z "},"ñ":{"ha":1090,"x_min":0,"x_max":0,"o":"m 242 -3 l 242 192 l 67 192 l 67 -3 z m 67 289 l 242 289 l 242 797 l 295 797 l 685 -3 l 1023 -3 l 1023 680 l 847 680 l 847 172 l 794 172 l 404 972 l 67 972 z m 1023 777 l 1023 972 l 847 972 l 847 777 z "},"o":{"ha":1019,"x_min":0,"x_max":0,"o":"m 432 789 b 469 795 445 792 457 794 b 509 797 481 796 494 797 b 790 616 656 797 750 717 b 814 485 806 574 814 529 b 790 353 814 440 806 395 b 509 172 750 252 656 172 b 293 254 414 172 342 205 b 227 358 264 284 242 319 b 205 485 212 398 205 441 b 294 716 205 571 235 657 l 171 840 b 29 485 76 747 29 615 b 63 296 29 420 41 356 b 169 131 87 234 122 178 b 509 -3 249 50 363 -3 b 952 289 739 -3 887 125 b 990 485 977 351 990 417 b 952 680 990 552 977 618 b 509 972 887 844 739 972 b 452 969 490 972 471 971 b 396 961 433 967 415 964 z "},"ò":{"ha":1019,"x_min":0,"x_max":0,"o":"m 432 789 b 469 795 445 792 457 794 b 509 797 481 796 494 797 b 790 616 656 797 750 717 b 814 485 806 574 814 529 b 790 353 814 440 806 395 b 509 172 750 252 656 172 b 293 254 414 172 342 205 b 227 358 264 284 242 319 b 205 485 212 398 205 441 b 294 716 205 571 235 657 l 171 840 b 29 485 76 747 29 615 b 63 296 29 420 41 356 b 169 131 87 234 122 178 b 509 -3 249 50 363 -3 b 952 289 739 -3 887 125 b 990 485 977 351 990 417 b 952 680 990 552 977 618 b 509 972 887 844 739 972 b 452 969 490 972 471 971 b 396 961 433 967 415 964 z "},"ó":{"ha":1019,"x_min":0,"x_max":0,"o":"m 432 789 b 469 795 445 792 457 794 b 509 797 481 796 494 797 b 790 616 656 797 750 717 b 814 485 806 574 814 529 b 790 353 814 440 806 395 b 509 172 750 252 656 172 b 293 254 414 172 342 205 b 227 358 264 284 242 319 b 205 485 212 398 205 441 b 294 716 205 571 235 657 l 171 840 b 29 485 76 747 29 615 b 63 296 29 420 41 356 b 169 131 87 234 122 178 b 509 -3 249 50 363 -3 b 952 289 739 -3 887 125 b 990 485 977 351 990 417 b 952 680 990 552 977 618 b 509 972 887 844 739 972 b 452 969 490 972 471 971 b 396 961 433 967 415 964 z "},"ô":{"ha":1019,"x_min":0,"x_max":0,"o":"m 432 789 b 469 795 445 792 457 794 b 509 797 481 796 494 797 b 790 616 656 797 750 717 b 814 485 806 574 814 529 b 790 353 814 440 806 395 b 509 172 750 252 656 172 b 293 254 414 172 342 205 b 227 358 264 284 242 319 b 205 485 212 398 205 441 b 294 716 205 571 235 657 l 171 840 b 29 485 76 747 29 615 b 63 296 29 420 41 356 b 169 131 87 234 122 178 b 509 -3 249 50 363 -3 b 952 289 739 -3 887 125 b 990 485 977 351 990 417 b 952 680 990 552 977 618 b 509 972 887 844 739 972 b 452 969 490 972 471 971 b 396 961 433 967 415 964 z "},"õ":{"ha":1019,"x_min":0,"x_max":0,"o":"m 432 789 b 469 795 445 792 457 794 b 509 797 481 796 494 797 b 790 616 656 797 750 717 b 814 485 806 574 814 529 b 790 353 814 440 806 395 b 509 172 750 252 656 172 b 293 254 414 172 342 205 b 227 358 264 284 242 319 b 205 485 212 398 205 441 b 294 716 205 571 235 657 l 171 840 b 29 485 76 747 29 615 b 63 296 29 420 41 356 b 169 131 87 234 122 178 b 509 -3 249 50 363 -3 b 952 289 739 -3 887 125 b 990 485 977 351 990 417 b 952 680 990 552 977 618 b 509 972 887 844 739 972 b 452 969 490 972 471 971 b 396 961 433 967 415 964 z "},"ö":{"ha":1019,"x_min":0,"x_max":0,"o":"m 432 789 b 469 795 445 792 457 794 b 509 797 481 796 494 797 b 790 616 656 797 750 717 b 814 485 806 574 814 529 b 790 353 814 440 806 395 b 509 172 750 252 656 172 b 293 254 414 172 342 205 b 227 358 264 284 242 319 b 205 485 212 398 205 441 b 294 716 205 571 235 657 l 171 840 b 29 485 76 747 29 615 b 63 296 29 420 41 356 b 169 131 87 234 122 178 b 509 -3 249 50 363 -3 b 952 289 739 -3 887 125 b 990 485 977 351 990 417 b 952 680 990 552 977 618 b 509 972 887 844 739 972 b 452 969 490 972 471 971 b 396 961 433 967 415 964 z "},"ø":{"ha":1019,"x_min":0,"x_max":0,"o":"m 432 789 b 469 795 445 792 457 794 b 509 797 481 796 494 797 b 790 616 656 797 750 717 b 814 485 806 574 814 529 b 790 353 814 440 806 395 b 509 172 750 252 656 172 b 293 254 414 172 342 205 b 227 358 264 284 242 319 b 205 485 212 398 205 441 b 294 716 205 571 235 657 l 171 840 b 29 485 76 747 29 615 b 63 296 29 420 41 356 b 169 131 87 234 122 178 b 509 -3 249 50 363 -3 b 952 289 739 -3 887 125 b 990 485 977 351 990 417 b 952 680 990 552 977 618 b 509 972 887 844 739 972 b 452 969 490 972 471 971 b 396 961 433 967 415 964 z "},"p":{"ha":946,"x_min":0,"x_max":0,"o":"m 237 680 l 237 797 l 637 797 b 712 765 665 797 692 785 b 744 689 732 745 744 718 l 744 582 b 712 506 744 554 732 526 b 637 475 692 486 665 475 l 61 475 l 61 -3 l 237 -3 l 237 299 l 637 299 b 836 382 712 299 784 329 b 919 582 890 435 919 507 l 919 689 b 836 889 919 764 890 836 b 637 972 784 942 712 972 l 61 972 l 61 680 z "},"q":{"ha":1060,"x_min":0,"x_max":0,"o":"m 433 789 b 469 795 445 792 457 794 b 509 797 481 796 494 797 b 790 616 656 797 750 717 b 814 485 806 574 814 529 b 790 353 814 440 806 395 b 756 291 781 331 770 310 l 598 449 l 474 325 l 612 187 b 509 172 579 177 544 172 b 293 254 414 172 342 205 b 227 358 264 284 242 319 b 205 485 212 398 205 441 b 294 716 205 571 235 657 l 171 840 b 29 485 76 747 29 615 b 63 296 29 420 41 356 b 169 131 87 234 122 178 b 509 -3 249 50 363 -3 b 747 53 602 -3 681 17 l 802 -3 l 1051 -3 l 882 166 b 952 289 911 203 935 244 b 990 485 977 351 990 417 b 952 680 990 552 977 618 b 509 972 887 844 739 972 b 452 969 490 972 471 971 b 396 961 433 967 415 964 z "},"r":{"ha":951,"x_min":0,"x_max":0,"o":"m 237 680 l 237 797 l 637 797 b 712 765 665 797 692 785 b 744 689 733 745 744 718 l 744 582 b 712 506 744 554 732 526 b 637 475 692 486 665 475 l 61 475 l 61 -3 l 237 -3 l 237 299 l 307 299 l 603 -3 l 848 -3 l 552 299 l 637 299 b 836 382 712 299 784 329 b 919 582 890 435 919 507 l 919 689 b 836 889 919 764 890 836 b 637 972 784 942 712 972 l 61 972 l 61 680 z "},"s":{"ha":1035,"x_min":0,"x_max":0,"o":"m 422 397 l 422 572 l 327 572 b 247 605 297 572 268 584 b 214 684 226 626 214 655 b 247 764 214 714 226 743 b 327 797 268 785 297 797 l 707 797 b 786 764 737 797 765 785 b 819 684 807 743 819 714 l 995 684 b 910 888 995 761 964 834 b 707 972 856 942 783 972 l 327 972 b 123 888 250 972 177 942 b 39 685 69 834 39 761 b 123 481 39 608 69 535 b 327 397 177 427 250 397 z m 39 285 b 327 -3 39 126 168 -3 l 707 -3 b 973 174 823 -3 928 67 b 910 488 1017 282 993 406 b 707 572 856 542 783 572 l 612 572 l 612 397 l 707 397 b 819 285 769 397 819 347 b 707 172 819 223 769 172 l 327 172 b 214 285 265 173 215 223 z "},"t":{"ha":879,"x_min":0,"x_max":0,"o":"m 0 797 l 244 797 l 244 972 l 0 972 z m 878 972 l 351 972 l 351 -3 l 527 -3 l 527 797 l 878 797 z "},"u":{"ha":964,"x_min":0,"x_max":0,"o":"m 731 972 l 731 377 b 671 233 731 323 710 271 b 527 172 633 194 581 172 l 429 172 b 340 192 398 172 368 179 b 235 310 291 216 254 258 b 224 377 228 332 224 354 l 224 582 l 49 582 l 49 377 b 132 141 49 291 78 208 b 264 35 167 96 213 60 b 429 -3 316 10 372 -3 l 527 -3 b 795 109 627 -3 724 37 b 907 377 867 180 907 276 l 907 972 z m 49 777 l 224 777 l 224 972 l 49 972 z "},"ù":{"ha":964,"x_min":0,"x_max":0,"o":"m 731 972 l 731 377 b 671 233 731 323 710 271 b 527 172 633 194 581 172 l 429 172 b 340 192 398 172 368 179 b 235 310 291 216 254 258 b 224 377 228 332 224 354 l 224 582 l 49 582 l 49 377 b 132 141 49 291 78 208 b 264 35 167 96 213 60 b 429 -3 316 10 372 -3 l 527 -3 b 795 109 627 -3 724 37 b 907 377 867 180 907 276 l 907 972 z m 49 777 l 224 777 l 224 972 l 49 972 z "},"ú":{"ha":964,"x_min":0,"x_max":0,"o":"m 731 972 l 731 377 b 671 233 731 323 710 271 b 527 172 633 194 581 172 l 429 172 b 340 192 398 172 368 179 b 235 310 291 216 254 258 b 224 377 228 332 224 354 l 224 582 l 49 582 l 49 377 b 132 141 49 291 78 208 b 264 35 167 96 213 60 b 429 -3 316 10 372 -3 l 527 -3 b 795 109 627 -3 724 37 b 907 377 867 180 907 276 l 907 972 z m 49 777 l 224 777 l 224 972 l 49 972 z "},"û":{"ha":964,"x_min":0,"x_max":0,"o":"m 731 972 l 731 377 b 671 233 731 323 710 271 b 527 172 633 194 581 172 l 429 172 b 340 192 398 172 368 179 b 235 310 291 216 254 258 b 224 377 228 332 224 354 l 224 582 l 49 582 l 49 377 b 132 141 49 291 78 208 b 264 35 167 96 213 60 b 429 -3 316 10 372 -3 l 527 -3 b 795 109 627 -3 724 37 b 907 377 867 180 907 276 l 907 972 z m 49 777 l 224 777 l 224 972 l 49 972 z "},"ü":{"ha":964,"x_min":0,"x_max":0,"o":"m 731 972 l 731 377 b 671 233 731 323 710 271 b 527 172 633 194 581 172 l 429 172 b 340 192 398 172 368 179 b 235 310 291 216 254 258 b 224 377 228 332 224 354 l 224 582 l 49 582 l 49 377 b 132 141 49 291 78 208 b 264 35 167 96 213 60 b 429 -3 316 10 372 -3 l 527 -3 b 795 109 627 -3 724 37 b 907 377 867 180 907 276 l 907 972 z m 49 777 l 224 777 l 224 972 l 49 972 z "},"v":{"ha":1083,"x_min":0,"x_max":0,"o":"m -6 972 l 87 741 l 250 806 l 183 972 z m 295 693 l 132 628 l 385 -3 l 698 -3 l 1088 972 l 900 972 l 580 172 l 503 172 z "},"w":{"ha":1285,"x_min":0,"x_max":0,"o":"m 67 972 l 67 777 l 242 777 l 242 972 z m 242 680 l 67 680 l 67 -3 l 418 -3 l 613 797 l 671 797 l 866 -3 l 1218 -3 l 1218 680 l 1042 680 l 1042 172 l 1003 172 l 808 972 l 476 972 l 281 172 l 242 172 z m 1218 777 l 1218 972 l 1042 972 l 1042 777 z "},"x":{"ha":1001,"x_min":0,"x_max":0,"o":"m -1 972 l 264 641 l 400 750 l 222 972 z m 1003 972 l 779 972 l -1 -3 l 222 -3 l 501 345 l 779 -3 l 1003 -3 l 612 485 z "},"y":{"ha":974,"x_min":0,"x_max":0,"o":"m -15 972 l 250 641 l 387 750 l 208 972 z m 765 972 l 397 512 l 397 -3 l 572 -3 l 572 452 l 989 972 z "},"ý":{"ha":974,"x_min":0,"x_max":0,"o":"m -15 972 l 250 641 l 387 750 l 208 972 z m 765 972 l 397 512 l 397 -3 l 572 -3 l 572 452 l 989 972 z "},"ÿ":{"ha":974,"x_min":0,"x_max":0,"o":"m -15 972 l 250 641 l 387 750 l 208 972 z m 765 972 l 397 512 l 397 -3 l 572 -3 l 572 452 l 989 972 z "},"z":{"ha":992,"x_min":0,"x_max":0,"o":"m 105 797 l 288 797 l 288 972 l 105 972 z m 398 972 l 398 797 l 756 797 l 18 225 l 18 -3 l 886 -3 l 886 172 l 236 172 l 973 744 l 973 972 z "},"{":{"ha":492,"x_min":0,"x_max":0,"o":"m 436 884 l 436 1059 b 217 861 343 1059 266 984 b 156 572 186 783 164 683 l 46 572 l 46 396 l 156 396 b 217 106 164 285 186 185 b 436 -92 266 -16 343 -92 l 436 84 b 379 172 422 84 401 117 b 329 484 348 250 329 360 b 379 796 329 608 348 718 b 436 884 401 850 422 884 z "},"|":{"ha":314,"x_min":0,"x_max":0,"o":"m 245 -61 l 245 1028 l 69 1028 l 69 -61 z "},"}":{"ha":492,"x_min":0,"x_max":0,"o":"m 335 572 b 275 861 328 683 306 783 b 56 1059 226 984 149 1059 l 56 884 b 112 796 70 884 91 850 b 163 484 144 718 163 608 b 112 171 163 360 144 250 b 56 84 91 117 70 84 l 56 -92 b 275 106 149 -92 226 -16 b 335 396 306 184 328 285 l 446 396 l 446 572 z "},"~":{"ha":878,"x_min":0,"x_max":0,"o":"m 711 546 b 516 558 660 494 592 525 b 42 557 382 618 233 685 l 139 411 b 444 399 251 485 353 440 b 835 422 579 339 699 285 z "}," ":{"ha":532,"x_min":0,"x_max":0,"o":""},"­":{"ha":0,"x_min":0,"x_max":0,"o":""}}}
